<?xml version="1.0" encoding="UTF-8"?>
<svg version="1.1" xmlns="http://www.w3.org/2000/svg" width="50" height="50">
<path d="M0 0 C0.28875 1.11375 0.5775 2.2275 0.875 3.375 C1.69241329 7.00291092 1.69241329 7.00291092 4 9 C6.65537372 9.56520003 9.29144713 9.73788198 12 10 C10.2278481 17.59493671 10.2278481 17.59493671 8.875 20 C7.69538957 22.6962524 8.08124618 25.03164115 8.41796875 27.90234375 C7.72869616 31.36159029 5.65296888 32.79460073 3 35 C-0.18212891 35.61523438 -0.18212891 35.61523438 -3.7265625 35.59375 C-5.0053125 35.59117188 -6.2840625 35.58859375 -7.6015625 35.5859375 C-8.5920459 35.56418457 -8.5920459 35.56418457 -9.60253906 35.54199219 C-11.62663398 35.49996607 -13.64741533 35.50093994 -15.671875 35.5078125 C-25.45428816 35.40900025 -25.45428816 35.40900025 -27.87890625 33.59179688 C-29.94098893 30.66392687 -29.53467424 27.42191514 -29 24 C-27.6875 22 -27.6875 22 -26 21 C-25.01 21 -24.02 21 -23 21 C-23.103125 20.113125 -23.20625 19.22625 -23.3125 18.3125 C-23 15 -23 15 -21.125 12.125 C-17.31196854 9.53213861 -14.88928022 9.22611698 -10.3515625 9.43359375 C-6.63490952 10.32880086 -5.24738798 13.04291055 -3 16 C-0.3141596 17.09254525 2.11663353 17.51129382 5 18 C5.66 16.68 6.32 15.36 7 14 C5.906875 13.5875 4.81375 13.175 3.6875 12.75 C0.49769905 11.38109757 -1.32567055 10.15167897 -3 7 C-3 6.01 -3 5.02 -3 4 C-3.763125 4.825 -4.52625 5.65 -5.3125 6.5 C-8 9 -8 9 -11 9 C-10.71180351 5.54164207 -10.21034962 4.21619267 -7.75 1.6875 C-4.7990854 -0.12328851 -3.38489309 -0.38684492 0 0 Z M-18.375 14.5625 C-20.54455002 17.81682503 -20.29451507 20.17130414 -20 24 C-20.804375 23.979375 -21.60875 23.95875 -22.4375 23.9375 C-24.93354885 23.70366379 -24.93354885 23.70366379 -26 25 C-26.04080783 26.99958364 -26.04254356 29.00045254 -26 31 C-21.29900997 33.71416161 -16.8634232 33.33056722 -11.5625 33.3125 C-10.15000977 33.33666992 -10.15000977 33.33666992 -8.70898438 33.36132812 C-3.6615704 33.36489017 -0.08858733 33.31620533 4 30 C5.31968178 28.89471558 5.31968178 28.89471558 5.25 26.125 C5.22895437 23.09654194 5.22895437 23.09654194 3.9375 21.125 C0.99772876 19.41803605 -1.67870803 19.81200234 -5 20 C-5.45375 19.030625 -5.9075 18.06125 -6.375 17.0625 C-7.65786221 13.92920418 -7.65786221 13.92920418 -10 13 C-13.54231061 12.61496624 -15.36257342 12.58064041 -18.375 14.5625 Z " fill="#FFFFFF" transform="translate(37,6)"/>
<path d="M0 0 C0.66 0 1.32 0 2 0 C2 0.66 2 1.32 2 2 C2.66 2 3.32 2 4 2 C4 2.66 4 3.32 4 4 C3.34 4 2.68 4 2 4 C2 4.66 2 5.32 2 6 C1.34 6 0.68 6 0 6 C0 5.34 0 4.68 0 4 C-0.99 4 -1.98 4 -3 4 C-3 3.34 -3 2.68 -3 2 C-2.01 2 -1.02 2 0 2 C0 1.34 0 0.68 0 0 Z " fill="#FFFFFF" transform="translate(11,6)"/>
<path d="M0 0 C0.99 0.33 1.98 0.66 3 1 C2.67 1.99 2.34 2.98 2 4 C0.68 3.67 -0.64 3.34 -2 3 C-2 2.34 -2 1.68 -2 1 C-1.34 0.67 -0.68 0.34 0 0 Z " fill="#FFFFFF" transform="translate(3,18)"/>
</svg>
