<?xml version="1.0" encoding="UTF-8"?>
<svg version="1.1" xmlns="http://www.w3.org/2000/svg" width="48" height="48">
<path d="M0 0 C2.46800047 1.15173355 4.04783565 2.04783565 6 4 C8.65537372 4.56520003 11.29144713 4.73788198 14 5 C14.12375 6.85625 14.12375 6.85625 14.25 8.75 C14.63475459 11.98882964 14.90024003 12.87907883 17.0625 15.5 C17.701875 15.995 18.34125 16.49 19 17 C17.84826645 19.46800047 16.95216435 21.04783565 15 23 C14.54188325 24.97235333 14.54188325 24.97235333 14.375 27.125 C14.25125 28.40375 14.1275 29.6825 14 31 C12.7625 31.0825 11.525 31.165 10.25 31.25 C7.01117036 31.63475459 6.12092117 31.90024003 3.5 34.0625 C2.7575 35.0215625 2.7575 35.0215625 2 36 C-0.46800047 34.84826645 -2.04783565 33.95216435 -4 32 C-6.65537372 31.43479997 -9.29144713 31.26211802 -12 31 C-12.0825 29.7625 -12.165 28.525 -12.25 27.25 C-12.63475459 24.01117036 -12.90024003 23.12092117 -15.0625 20.5 C-15.701875 20.005 -16.34125 19.51 -17 19 C-15.84826645 16.53199953 -14.95216435 14.95216435 -13 13 C-12.54188325 11.02764667 -12.54188325 11.02764667 -12.375 8.875 C-12.189375 6.956875 -12.189375 6.956875 -12 5 C-10.7625 4.9175 -9.525 4.835 -8.25 4.75 C-5.01117036 4.36524541 -4.12092117 4.09975997 -1.5 1.9375 C-1.005 1.298125 -0.51 0.65875 0 0 Z " fill="#FF9900" transform="translate(23,6)"/>
<path d="M0 0 C3.70390021 2.02666238 5.65363011 3.48044516 8 7 C8.67116683 13.93539055 8.67116683 13.93539055 6.1875 17.875 C3.06236435 20.91084606 1.53396966 21.94832552 -2.875 22.375 C-7.03264138 22.2756446 -9.06847313 21.01774825 -12 18 C-14.45876515 14.31185227 -14.6943399 11.283157 -14 7 C-10.31376961 1.15287594 -6.88633847 -0.70030561 0 0 Z " fill="#FFE839" transform="translate(27,13)"/>
</svg>
