<?xml version="1.0" encoding="UTF-8"?>
<svg version="1.1" xmlns="http://www.w3.org/2000/svg" width="50" height="50">
<path d="M0 0 C0.47566406 0.50660156 0.95132812 1.01320313 1.44140625 1.53515625 C2.92423229 3.24529837 2.92423229 3.24529837 5.3046875 3.1171875 C6.15289063 3.03726562 7.00109375 2.95734375 7.875 2.875 C11.97831018 2.7310242 12.68344678 2.75941955 16.125 5.375 C18 8 18 8 18 10 C18.886875 9.896875 19.77375 9.79375 20.6875 9.6875 C24 10 24 10 26.875 12 C29.23580148 15.33289621 29.58449805 16.99110331 29.6640625 20.9375 C28.60086874 24.23965474 26.6306112 25.79949551 24 28 C20.81787109 28.61523438 20.81787109 28.61523438 17.2734375 28.59375 C15.9946875 28.59117188 14.7159375 28.58859375 13.3984375 28.5859375 C12.4079541 28.56418457 12.4079541 28.56418457 11.39746094 28.54199219 C9.37336602 28.49996607 7.35258467 28.50093994 5.328125 28.5078125 C-4.44517618 28.40909229 -4.44517618 28.40909229 -6.89428711 26.60327148 C-8.38393099 24.44330431 -8.17711619 23.14599824 -7.9375 20.5625 C-7.79518047 18.18076761 -7.79518047 18.18076761 -8 16 C-9.31266518 14.64631404 -10.64567325 13.31200404 -12 12 C-12.86395276 8.02083296 -12.5956698 4.99278301 -10.5 1.5 C-6.74351164 -0.75389302 -4.35420619 -0.48380069 0 0 Z M-3 9 C-3 10.32 -3 11.64 -3 13 C-3.99 13.495 -3.99 13.495 -5 14 C-4.01 14 -3.02 14 -2 14 C-2 12.35 -2 10.7 -2 9 C-2.33 9 -2.66 9 -3 9 Z " fill="#FFFFFF" transform="translate(21,13)"/>
<path d="M0 0 C0.99 0 1.98 0 3 0 C2.43628586 3.26954202 1.50037734 4.82575883 -1 7 C-1.99 6.67 -2.98 6.34 -4 6 C-2.84826645 3.53199953 -1.95216435 1.95216435 0 0 Z " fill="#FFFFFF" transform="translate(27,8)"/>
<path d="M0 0 C3.26954202 0.56371414 4.82575883 1.49962266 7 4 C6.67 4.99 6.34 5.98 6 7 C3.53199953 5.84826645 1.95216435 4.95216435 0 3 C0 2.01 0 1.02 0 0 Z " fill="#FFFFFF" transform="translate(4,8)"/>
<path d="M0 0 C0.99 0.33 1.98 0.66 3 1 C1.95125002 3.62187494 1.35068687 4.79371361 -1.125 6.25 C-1.74375 6.4975 -2.3625 6.745 -3 7 C-3 3 -3 3 -1.5 1.25 C-1.005 0.8375 -0.51 0.425 0 0 Z " fill="#FFFFFF" transform="translate(8,27)"/>
<path d="M0 0 C2.31 0 4.62 0 7 0 C7 0.66 7 1.32 7 2 C4.69 2 2.38 2 0 2 C0 1.34 0 0.68 0 0 Z " fill="#FFFFFF" transform="translate(0,20)"/>
<path d="M0 0 C0.66 0 1.32 0 2 0 C2 2.31 2 4.62 2 7 C1.34 7 0.68 7 0 7 C0 4.69 0 2.38 0 0 Z " fill="#FFFFFF" transform="translate(16,4)"/>
</svg>
