<?xml version="1.0" encoding="UTF-8"?>
<svg version="1.1" xmlns="http://www.w3.org/2000/svg" width="24" height="24">
<path d="M0 0 C0 0.66 0 1.32 0 2 C0.9590625 2.2165625 0.9590625 2.2165625 1.9375 2.4375 C4 3 4 3 5 4 C5.44999897 9.62498715 4.41889075 13.06143138 2 18 C0.25285767 18.25002209 -1.49799141 18.47423194 -3.25 18.6875 C-4.22453125 18.81511719 -5.1990625 18.94273438 -6.203125 19.07421875 C-9.52542041 18.98605728 -10.64124069 18.27834706 -13 16 C-15.20700305 12.02739451 -15.33895171 8.49111015 -15 4 C-14.34 3.34 -13.68 2.68 -13 2 C-12.01 2 -11.02 2 -10 2 C-10 1.34 -10 0.68 -10 0 C-6.22996568 -2.61002376 -4.07631429 -1.66758312 0 0 Z M-7 2 C-7.33 2.66 -7.66 3.32 -8 4 C-10.0625 5.125 -10.0625 5.125 -12 6 C-11.855625 6.556875 -11.71125 7.11375 -11.5625 7.6875 C-10.97230872 10.11384195 -10.476571 12.54906345 -10 15 C-6.7 15 -3.4 15 0 15 C1.95031608 10.05250648 1.95031608 10.05250648 1 5 C0.01 5 -0.98 5 -2 5 C-2.33 4.01 -2.66 3.02 -3 2 C-4.32 2 -5.64 2 -7 2 Z " fill="#FFFFFF" transform="translate(17,3)"/>
<path d="M0 0 C1.98 0 3.96 0 6 0 C6 1.98 6 3.96 6 6 C4.02 6 2.04 6 0 6 C0 4.02 0 2.04 0 0 Z " fill="#FFFFFF" transform="translate(9,9)"/>
</svg>
