<?xml version="1.0" encoding="UTF-8"?>
<svg version="1.1" xmlns="http://www.w3.org/2000/svg" width="26" height="26">
<path d="M0 0 C0.99 0.33 1.98 0.66 3 1 C4.1875 4.0625 4.1875 4.0625 5 7 C7.97 7.33 10.94 7.66 14 8 C13 12 13 12 11.48046875 13.45703125 C9.52246819 15.49769146 9.51420318 16.90399614 9.3125 19.6875 C9.24675781 20.49574219 9.18101563 21.30398437 9.11328125 22.13671875 C9.07589844 22.75160156 9.03851562 23.36648437 9 24 C4.2 23.06666667 4.2 23.06666667 1.9375 22.3125 C-0.62596831 21.89903737 -1.76482492 22.77425883 -4 24 C-4.99 24 -5.98 24 -7 24 C-7.02578125 23.39671875 -7.0515625 22.7934375 -7.078125 22.171875 C-7.35889045 16.94728665 -7.35889045 16.94728665 -10.0625 12.625 C-10.701875 12.08875 -11.34125 11.5525 -12 11 C-12 10.01 -12 9.02 -12 8 C-7.545 7.505 -7.545 7.505 -3 7 C-2.690625 6.030625 -2.38125 5.06125 -2.0625 4.0625 C-1 1 -1 1 0 0 Z M0 6 C-0.33 7.32 -0.66 8.64 -1 10 C-2.98 10 -4.96 10 -7 10 C-6.505 10.53625 -6.01 11.0725 -5.5 11.625 C-3.62510456 14.59358445 -3.76498575 16.55312427 -4 20 C-2.906875 19.814375 -1.81375 19.62875 -0.6875 19.4375 C3 19 3 19 6 20 C5.938125 19.0925 5.87625 18.185 5.8125 17.25 C6.01672076 13.71017358 6.64551835 12.55068845 9 10 C7.02 10 5.04 10 3 10 C2.67 8.68 2.34 7.36 2 6 C1.34 6 0.68 6 0 6 Z " fill="#FFFFFF" transform="translate(12,1)"/>
</svg>
