<?xml version="1.0" encoding="UTF-8"?>
<svg version="1.1" xmlns="http://www.w3.org/2000/svg" width="50" height="50">
<path d="M0 0 C0.99 0 1.98 0 3 0 C3.16113281 0.74765625 3.32226562 1.4953125 3.48828125 2.265625 C5.12462231 8.47015322 5.12462231 8.47015322 9.71484375 12.62109375 C12.46305971 13.58668314 15.15359343 14.38655031 18 15 C18 15.99 18 16.98 18 18 C17.25234375 18.16113281 16.5046875 18.32226562 15.734375 18.48828125 C9.52984678 20.12462231 9.52984678 20.12462231 5.37890625 24.71484375 C4.41331686 27.46305971 3.61344969 30.15359343 3 33 C2.01 33 1.02 33 0 33 C-0.16113281 32.25234375 -0.32226562 31.5046875 -0.48828125 30.734375 C-2.12462231 24.52984678 -2.12462231 24.52984678 -6.71484375 20.37890625 C-9.46305971 19.41331686 -12.15359343 18.61344969 -15 18 C-15 17.01 -15 16.02 -15 15 C-13.87851562 14.75830078 -13.87851562 14.75830078 -12.734375 14.51171875 C-6.52984678 12.87537769 -6.52984678 12.87537769 -2.37890625 8.28515625 C-1.41331686 5.53694029 -0.61344969 2.84640657 0 0 Z M1 6 C0.34 8.64 -0.32 11.28 -1 14 C-3.64 14.66 -6.28 15.32 -9 16 C-6.08235 17.9451 -4.37462715 18.45276317 -1 19 C-0.34 21.64 0.32 24.28 1 27 C2.9451 24.08235 3.45276317 22.37462715 4 19 C6.64 18.34 9.28 17.68 12 17 C9.08235 15.0549 7.37462715 14.54723683 4 14 C3.34 11.36 2.68 8.72 2 6 C1.67 6 1.34 6 1 6 Z " fill="#FFFFFF" transform="translate(32,11)"/>
<path d="M0 0 C1.32 0 2.64 0 4 0 C4.66 2.64 5.32 5.28 6 8 C8.64 8.66 11.28 9.32 14 10 C14 11.32 14 12.64 14 14 C11.36 14.66 8.72 15.32 6 16 C5.34 18.64 4.68 21.28 4 24 C2.68 24 1.36 24 0 24 C-0.66 21.36 -1.32 18.72 -2 16 C-4.64 15.34 -7.28 14.68 -10 14 C-10 12.68 -10 11.36 -10 10 C-7.36 9.34 -4.72 8.68 -2 8 C-1.34 5.36 -0.68 2.72 0 0 Z M-0.625 9.375 C-2.21531408 10.89968321 -2.21531408 10.89968321 -2 13 C-0.66666667 14.66666667 -0.66666667 14.66666667 1 16 C3.10031679 16.21531408 3.10031679 16.21531408 4.625 14.625 C6.21531408 13.10031679 6.21531408 13.10031679 6 11 C4.66666667 9.33333333 4.66666667 9.33333333 3 8 C0.89968321 7.78468592 0.89968321 7.78468592 -0.625 9.375 Z " fill="#FFFFFF" transform="translate(11,1)"/>
<path d="M0 0 C1.32 0 2.64 0 4 0 C4.33 1.98 4.66 3.96 5 6 C7.97 6.495 7.97 6.495 11 7 C11 8.32 11 9.64 11 11 C9.02 11.33 7.04 11.66 5 12 C4.67 13.98 4.34 15.96 4 18 C2.68 18 1.36 18 0 18 C-0.33 16.02 -0.66 14.04 -1 12 C-3.97 11.505 -3.97 11.505 -7 11 C-7 9.68 -7 8.36 -7 7 C-5.02 6.67 -3.04 6.34 -1 6 C-0.67 4.02 -0.34 2.04 0 0 Z M1 8 C1 8.66 1 9.32 1 10 C1.66 10 2.32 10 3 10 C3 9.34 3 8.68 3 8 C2.34 8 1.68 8 1 8 Z " fill="#FFFFFF" transform="translate(7,31)"/>
</svg>
