<?xml version="1.0" encoding="UTF-8"?>
<svg version="1.1" xmlns="http://www.w3.org/2000/svg" width="48" height="48">
<path d="M0 0 C3.08332581 1.570533 5.47654388 3.65040404 8 6 C8.71671875 6.66128906 9.4334375 7.32257812 10.171875 8.00390625 C19.05972121 16.55115981 19.05972121 16.55115981 19.4375 23.5 C19.30210082 26.52391506 18.98122529 28.03840282 17.625 30.8125 C10.43474611 36.80437824 1.48371838 38.18892848 -7.5625 38.25 C-8.33013672 38.270625 -9.09777344 38.29125 -9.88867188 38.3125 C-12.84223907 38.33310029 -15.33282577 38.33683845 -18.00390625 36.98828125 C-19.6210477 33.76034008 -19.44051033 30.46477396 -19.375 26.9375 C-19.36629883 26.17397217 -19.35759766 25.41044434 -19.34863281 24.6237793 C-19.12727681 16.06437809 -17.41674125 8.77092657 -12 2 C-7.93022292 -0.71318472 -4.77916617 -0.87176973 0 0 Z M-8 7 C-8 8.32 -8 9.64 -8 11 C-6.68 11 -5.36 11 -4 11 C-4 9.68 -4 8.36 -4 7 C-5.32 7 -6.64 7 -8 7 Z M0 15 C0 16.32 0 17.64 0 19 C1.32 19 2.64 19 4 19 C4 17.68 4 16.36 4 15 C2.68 15 1.36 15 0 15 Z M-11 17 C-11 18.32 -11 19.64 -11 21 C-9.68 21 -8.36 21 -7 21 C-7 19.68 -7 18.36 -7 17 C-8.32 17 -9.64 17 -11 17 Z M8 23 C8 24.32 8 25.64 8 27 C9.32 27 10.64 27 12 27 C12 25.68 12 24.36 12 23 C10.68 23 9.36 23 8 23 Z M-2 26 C-2 27.32 -2 28.64 -2 30 C-0.68 30 0.64 30 2 30 C2 28.68 2 27.36 2 26 C0.68 26 -0.64 26 -2 26 Z M-13 28 C-13 29.32 -13 30.64 -13 32 C-11.68 32 -10.36 32 -9 32 C-9 30.68 -9 29.36 -9 28 C-10.32 28 -11.64 28 -13 28 Z " fill="#FFFFFF" transform="translate(22,7)"/>
<path d="M0 0 C1.258125 -0.04125 2.51625 -0.0825 3.8125 -0.125 C4.52019531 -0.14820313 5.22789063 -0.17140625 5.95703125 -0.1953125 C8 0 8 0 11 2 C10.67 3.65 10.34 5.3 10 7 C8.68 7.33 7.36 7.66 6 8 C4.02 5.36 2.04 2.72 0 0 Z " fill="#FFFFFF" transform="translate(34,16)"/>
<path d="M0 0 C2.4375 0.375 2.4375 0.375 5 1 C6.60725635 4.21451269 6.05748185 7.43612536 6 11 C3.36 9.02 0.72 7.04 -2 5 C-1.34 3.35 -0.68 1.7 0 0 Z " fill="#FFFFFF" transform="translate(26,3)"/>
<path d="M0 0 C2.31 0 4.62 0 7 0 C7 2.31 7 4.62 7 7 C4.69 7 2.38 7 0 7 C0 4.69 0 2.38 0 0 Z " fill="#FFFFFF" transform="translate(33,8)"/>
</svg>
