<?xml version="1.0" encoding="UTF-8"?>
<svg version="1.1" xmlns="http://www.w3.org/2000/svg" width="50" height="50">
<path d="M0 0 C1.33557043 -0.66217358 2.66861596 -1.32944891 4 -2 C9.01815989 -2.7121481 12.94174495 -2.52912753 17.5 -0.25 C20.59322625 2.53390362 21.81813643 4.43644571 22.30078125 8.5859375 C22.33433985 16.57288513 21.04629794 20.99910649 15.5 26.875 C10.74479791 31.47051247 5.42981248 35.24704137 0 39 C-8.3579246 35.144002 -18.99668987 28.12796612 -23.16015625 19.6328125 C-25.02836329 13.77620067 -24.95672086 7.94761031 -22.25 2.4375 C-16.03356286 -4.29697356 -7.95790809 -2.65263603 0 0 Z M-21 12 C-20 15 -20 15 -20 15 Z M18 12 C19 15 19 15 19 15 Z " fill="#FFFFFF" transform="translate(26,7)"/>
</svg>
